<svg width="105" height="32" viewBox="0 0 105 32" fill="none" xmlns="http://www.w3.org/2000/svg">
<g opacity="0.3">
<path d="M101.757 6.2449L95.8967 9.44284C95.7704 9.5118 95.6191 9.44957 95.5592 9.30403L93.8765 5.21315C93.8164 5.06701 93.8701 4.89213 93.9976 4.8226L99.8559 1.62581C99.9828 1.55657 100.135 1.61851 100.195 1.76526L101.878 5.85614C101.938 6.00228 101.884 6.17595 101.757 6.2449Z" fill="#2E7D32" fill-opacity="0.2"/>
<path d="M101.46 5.50337L95.587 8.70821C95.4643 8.77515 95.3177 8.71484 95.2596 8.57354L93.8772 5.21279C93.817 5.06664 93.8708 4.89176 93.9982 4.82223L99.8566 1.62544C99.9835 1.5562 100.135 1.61814 100.196 1.76489L101.578 5.12504C101.636 5.26723 101.583 5.43614 101.46 5.50337Z" fill="url(#paint0_linear_58_2)" fill-opacity="0.2"/>
<path d="M96.6352 6.29692C96.6059 6.22361 96.5575 6.17491 96.4902 6.15139C96.423 6.12788 96.3244 6.12705 96.1955 6.14981C96.0182 6.18593 95.877 6.18279 95.7722 6.13948C95.6669 6.09649 95.5887 6.01047 95.5375 5.88234C95.4851 5.75123 95.4774 5.6242 95.5144 5.50125C95.5512 5.37771 95.6282 5.27392 95.7443 5.18899L95.6616 4.98219C95.6495 4.9518 95.6626 4.91381 95.6906 4.89806L95.7527 4.86318C95.7807 4.84744 95.8138 4.85951 95.826 4.8899L95.9091 5.09789C96.0401 5.04691 96.1587 5.04892 96.265 5.10449C96.3604 5.15455 96.4392 5.24745 96.5018 5.3838C96.5138 5.4106 96.502 5.44497 96.4767 5.45917L96.363 5.52307C96.3388 5.53665 96.3118 5.52628 96.2991 5.5013C96.2566 5.41351 96.2029 5.35319 96.138 5.32034C96.0621 5.28197 95.9822 5.28595 95.8987 5.33287C95.8113 5.38195 95.754 5.44404 95.7276 5.51943C95.701 5.59423 95.705 5.67664 95.74 5.76424C95.7726 5.84589 95.8233 5.89696 95.8915 5.91776C95.9597 5.93856 96.0581 5.93729 96.186 5.91365C96.3138 5.89001 96.4186 5.88444 96.5008 5.89662C96.5825 5.90911 96.6511 5.9377 96.7061 5.9842C96.761 6.03071 96.8053 6.09627 96.8392 6.1809C96.893 6.31558 96.899 6.44504 96.8571 6.56926C96.8152 6.69348 96.7303 6.801 96.6016 6.89153L96.6707 7.06435C96.6829 7.09475 96.6698 7.13274 96.6417 7.14849L96.5807 7.18275C96.5527 7.19849 96.5196 7.18643 96.5075 7.15603L96.4384 6.9832C96.2961 7.04636 96.168 7.0541 96.0536 7.00525C95.9515 6.9619 95.8696 6.87504 95.8089 6.74497C95.7963 6.71848 95.8087 6.68379 95.834 6.66959L95.9488 6.60508C95.9719 6.59212 95.9991 6.59948 96.0107 6.62358C96.0527 6.71018 96.1075 6.76628 96.1749 6.79189C96.2526 6.82124 96.3406 6.80903 96.4395 6.75347C96.5356 6.69945 96.6015 6.63183 96.6367 6.54999C96.6699 6.4679 96.6697 6.38333 96.6352 6.29692Z" fill="white" fill-opacity="0.2"/>
<path d="M96.6345 6.95364L96.4455 6.99519L95.7331 5.18359L95.7085 5.12322L95.9006 5.08587L96.6129 6.90051L96.6345 6.95364Z" fill="white" fill-opacity="0.2"/>
<path opacity="0.5" d="M99.2805 5.69035C99.8184 5.39681 100.048 4.65657 99.793 4.03697C99.5382 3.41738 98.8955 3.15307 98.3575 3.44661C97.8196 3.74016 97.5901 4.4804 97.845 5.09999C98.0998 5.71958 98.7425 5.98389 99.2805 5.69035Z" fill="#2E7D32" fill-opacity="0.2"/>
<path d="M99.3413 2.44053C99.5213 2.74328 99.8534 2.87986 100.159 2.77687L100.871 4.50758C100.608 4.71488 100.49 5.09739 100.579 5.44956L96.1022 7.89248C95.9168 7.6142 95.5995 7.49479 95.3074 7.59331L94.5955 5.8626C94.8697 5.64688 94.9867 5.24152 94.8756 4.87741L99.3413 2.44053ZM99.3883 2.26638L94.723 4.81215C94.729 4.8252 94.735 4.83826 94.7408 4.85221C94.8882 5.2106 94.7555 5.63869 94.4443 5.80848L95.2483 7.76296C95.5473 7.59977 95.9026 7.73482 96.0608 8.06436L100.726 5.51858C100.579 5.16019 100.711 4.7321 101.023 4.56231L100.219 2.60783C99.9074 2.77763 99.5357 2.62477 99.3883 2.26638Z" fill="#2E7D32" fill-opacity="0.2"/>
<path d="M96.3476 3.54099L97.5064 2.90864L99.4066 7.52831L98.2478 8.16066L96.3476 3.54099Z" fill="#FFECB3" fill-opacity="0.2"/>
<path opacity="0.5" d="M97.944 7.42206L99.1028 6.78971L99.4066 7.52832L98.2478 8.16067L97.944 7.42206Z" fill="#FFB74D" fill-opacity="0.2"/>
<path opacity="0.2" d="M99.8812 1.68727C99.9791 1.63383 100.096 1.68202 100.143 1.79481L101.825 5.88569C101.872 5.99788 101.83 6.13193 101.733 6.18509L95.8721 9.38303C95.7747 9.43618 95.6583 9.38831 95.6122 9.27612L93.9292 5.18464C93.8828 5.07185 93.9246 4.9369 94.0226 4.88346L99.8809 1.68667M99.8562 1.62663L93.9979 4.82342C93.871 4.89266 93.8164 5.06723 93.8768 5.21398L95.5595 9.30485C95.6194 9.45039 95.7707 9.51262 95.897 9.44367L101.757 6.24601C101.883 6.17706 101.937 6.00279 101.878 5.85725L100.195 1.76577C100.135 1.61933 99.9831 1.55739 99.8562 1.62663Z" fill="#424242" fill-opacity="0.2"/>
<path d="M99.1344 25.7114L95.3375 17.9262C95.2557 17.7584 95.3076 17.5454 95.4533 17.4511L99.5498 14.8007C99.6961 14.706 99.8817 14.7654 99.9642 14.9346L103.76 22.717C103.842 22.8856 103.79 23.0993 103.643 23.1944L99.5469 25.8448C99.4006 25.9394 99.2163 25.8793 99.1344 25.7114Z" fill="#2E7D32" fill-opacity="0.2"/>
<path d="M99.8775 25.2417L96.0725 17.4397C95.993 17.2768 96.0433 17.0703 96.1848 16.9788L99.5502 14.8014C99.6965 14.7068 99.8821 14.7661 99.9646 14.9354L103.76 22.7178C103.842 22.8864 103.791 23.1001 103.644 23.1951L100.279 25.3721C100.137 25.4633 99.9574 25.4054 99.8775 25.2417Z" fill="url(#paint1_linear_58_2)" fill-opacity="0.2"/>
<path d="M98.6178 18.6697C98.6936 18.6198 98.7439 18.5486 98.768 18.4567C98.7921 18.3648 98.7926 18.2354 98.7685 18.0699C98.7304 17.843 98.7332 17.6573 98.7776 17.5131C98.8218 17.3682 98.9106 17.2522 99.0432 17.1648C99.1788 17.0755 99.3104 17.0454 99.438 17.0745C99.5661 17.1033 99.674 17.1879 99.7624 17.3268L99.9764 17.1858C100.008 17.1651 100.047 17.1763 100.064 17.2105L100.1 17.2865C100.116 17.3208 100.104 17.3661 100.073 17.3868L99.8574 17.5286C99.9108 17.6924 99.9091 17.8482 99.8519 17.9964C99.8004 18.1294 99.7045 18.2474 99.5634 18.3509C99.5357 18.371 99.5 18.3609 99.4852 18.3299L99.4186 18.1908C99.4044 18.1612 99.4151 18.1242 99.4409 18.1036C99.5317 18.034 99.594 17.9541 99.6278 17.8638C99.6673 17.7582 99.6628 17.6541 99.6139 17.5519C99.5627 17.4451 99.4982 17.3797 99.4199 17.357C99.3423 17.3338 99.257 17.352 99.1663 17.4118C99.0818 17.4674 99.0291 17.5419 99.0078 17.6347C98.9865 17.7274 98.9882 17.8562 99.0132 18.0202C99.0382 18.1841 99.0444 18.3206 99.0321 18.4304C99.0194 18.5395 98.9901 18.634 98.9421 18.7134C98.8941 18.7928 98.8263 18.8613 98.7388 18.919C98.5994 19.0108 98.4653 19.039 98.3364 19.0036C98.2075 18.9683 98.0958 18.8739 98.0015 18.7194L97.8227 18.8372C97.7913 18.8579 97.7518 18.8467 97.7354 18.8124L97.6997 18.7378C97.6833 18.7036 97.6956 18.6583 97.7271 18.6375L97.9059 18.5197C97.8399 18.343 97.8314 18.1762 97.8816 18.0185C97.9261 17.8777 98.0158 17.7568 98.1504 17.6566C98.1778 17.6359 98.2138 17.6467 98.2286 17.6776L98.2959 17.8181C98.3094 17.8463 98.3019 17.8831 98.2769 17.9022C98.1874 17.9709 98.1294 18.0515 98.1031 18.144C98.073 18.2505 98.086 18.364 98.144 18.4849C98.2003 18.6026 98.2706 18.6783 98.3555 18.7116C98.4407 18.7421 98.5284 18.7286 98.6178 18.6697Z" fill="white" fill-opacity="0.2"/>
<path d="M97.9617 18.7375L97.919 18.5084L99.7483 17.3457L99.8093 17.3059L99.8478 17.5394L98.0153 18.7025L97.9617 18.7375Z" fill="white" fill-opacity="0.2"/>
<path opacity="0.5" d="M99.5034 22.2633C99.8519 22.9779 100.637 23.2318 101.258 22.8304C101.878 22.429 102.099 21.5243 101.75 20.8097C101.402 20.0951 100.616 19.8412 99.9958 20.2426C99.3753 20.644 99.1549 21.5487 99.5034 22.2633Z" fill="#2E7D32" fill-opacity="0.2"/>
<path d="M102.873 22.0777C102.575 22.35 102.461 22.8175 102.593 23.229L100.86 24.3503C100.623 24.0064 100.218 23.8752 99.8603 24.0272L96.9599 18.08C97.2327 17.8023 97.3301 17.3566 97.2038 16.9635L98.9369 15.8422C99.183 16.201 99.6124 16.328 99.9802 16.1453L102.873 22.0777ZM103.058 22.1278L100.035 15.9303C100.022 15.9396 100.009 15.949 99.9952 15.958C99.6363 16.1902 99.182 16.0434 98.9804 15.63L97.0233 16.8963C97.217 17.2935 97.1066 17.7928 96.7785 18.0373L99.8011 24.2348C100.16 24.0027 100.614 24.1495 100.816 24.5628L102.773 23.2966C102.571 22.8832 102.699 22.36 103.058 22.1278Z" fill="#2E7D32" fill-opacity="0.2"/>
<path d="M101.486 18.0565L102.237 19.596L97.6107 22.5889L96.86 21.0495L101.486 18.0565Z" fill="#FFECB3" fill-opacity="0.2"/>
<path opacity="0.5" d="M97.5996 20.571L98.3504 22.1104L97.6107 22.5889L96.86 21.0495L97.5996 20.571Z" fill="#FFB74D" fill-opacity="0.2"/>
<path opacity="0.2" d="M103.698 22.7568C103.762 22.8869 103.722 23.0518 103.609 23.1249L99.5121 25.7752C99.3998 25.8479 99.2575 25.8019 99.1944 25.6726L95.3976 17.8873C95.3345 17.758 95.3744 17.5941 95.4868 17.5214L99.5838 14.8707C99.6968 14.7976 99.84 14.8439 99.9034 14.974L103.699 22.7564M103.759 22.7175L99.9635 14.9351C99.8813 14.7665 99.6961 14.706 99.5491 14.8011L95.4526 17.4515C95.3069 17.5458 95.255 17.7588 95.3369 17.9266L99.1334 25.7111C99.2152 25.879 99.4002 25.9388 99.5459 25.8445L103.643 23.1937C103.79 23.0997 103.841 22.886 103.759 22.7175Z" fill="#424242" fill-opacity="0.2"/>
<path d="M66.9534 30.1907L55.9943 28.239C55.758 28.1969 55.5924 27.9666 55.6248 27.7251L56.5357 20.9396C56.5682 20.6972 56.7867 20.5342 57.0249 20.5766L67.9801 22.5276C68.2174 22.5699 68.3841 22.8004 68.3514 23.0438L67.4405 29.8294C67.4079 30.0718 67.1897 30.2328 66.9534 30.1907Z" fill="#2E7D32" fill-opacity="0.2"/>
<path d="M67.1296 28.9686L56.1468 27.0127C55.9174 26.9718 55.7569 26.7486 55.7883 26.5142L56.5367 20.9397C56.5692 20.6973 56.7877 20.5343 57.0259 20.5768L67.9811 22.5278C68.2184 22.57 68.385 22.8005 68.3524 23.044L67.6042 28.6175C67.5716 28.8527 67.36 29.0096 67.1296 28.9686Z" fill="url(#paint2_linear_58_2)" fill-opacity="0.2"/>
<path d="M59.6004 25.1004C59.6153 24.9781 59.5844 24.8661 59.5075 24.7655C59.4306 24.6649 59.2921 24.5594 59.0928 24.4511C58.8148 24.308 58.618 24.1543 58.5033 23.9893C58.3877 23.8241 58.3435 23.6341 58.3696 23.4203C58.3963 23.2015 58.4829 23.0352 58.6295 22.9213C58.7762 22.8065 58.9645 22.7588 59.1936 22.7762L59.2357 22.4311C59.2419 22.3803 59.2895 22.3469 59.3411 22.357L59.4555 22.3794C59.5072 22.3895 59.5446 22.4396 59.5384 22.4904L59.496 22.8375C59.7201 22.913 59.8859 23.0412 59.9933 23.2231C60.0894 23.3866 60.1294 23.5858 60.113 23.822C60.1094 23.8681 60.0664 23.8984 60.0198 23.8892L59.8102 23.8482C59.7656 23.8394 59.7355 23.7979 59.7368 23.7533C59.7442 23.599 59.7147 23.4669 59.6483 23.3572C59.5706 23.2289 59.4549 23.1492 59.301 23.1191C59.14 23.0875 59.0115 23.1041 58.9164 23.17C58.8214 23.2349 58.7638 23.3417 58.7459 23.4879C58.7293 23.6242 58.7616 23.7415 58.8419 23.8397C58.9222 23.938 59.0621 24.0407 59.2606 24.1468C59.4591 24.2529 59.6113 24.3571 59.718 24.4595C59.8237 24.5617 59.8986 24.67 59.9404 24.7862C59.9822 24.9023 59.9945 25.031 59.9773 25.1722C59.9498 25.397 59.8589 25.5645 59.7044 25.6748C59.55 25.7851 59.3477 25.829 59.0966 25.8052L59.0614 26.0937C59.0552 26.1444 59.0076 26.1778 58.9559 26.1677L58.8435 26.1457C58.7919 26.1356 58.7545 26.0855 58.7607 26.0347L58.7959 25.7463C58.5465 25.674 58.3598 25.5478 58.2358 25.3657C58.125 25.2035 58.0762 25.0085 58.0904 24.7822C58.0929 24.7358 58.137 24.7058 58.1836 24.7149L58.3952 24.7564C58.4377 24.7647 58.4704 24.8027 58.4684 24.845C58.4612 24.9974 58.4953 25.1253 58.5708 25.2287C58.6579 25.3476 58.7915 25.4257 58.9737 25.4614C59.1509 25.4961 59.2957 25.4817 59.4083 25.4172C59.5181 25.3501 59.5828 25.2446 59.6004 25.1004Z" fill="white" fill-opacity="0.2"/>
<path d="M59.0826 25.9013L58.7785 25.7566L59.1936 22.7707L59.2063 22.6704L59.5115 22.8235L59.0937 25.8131L59.0826 25.9013Z" fill="white" fill-opacity="0.2"/>
<path opacity="0.5" d="M63.8659 26.997C64.8719 27.1762 65.7992 26.4883 65.9372 25.4606C66.0751 24.4328 65.3715 23.4545 64.3655 23.2753C63.3596 23.0962 62.4323 23.7841 62.2943 24.8118C62.1563 25.8395 62.86 26.8179 63.8659 26.997Z" fill="#2E7D32" fill-opacity="0.2"/>
<path d="M66.5854 23.0197C66.5972 23.578 66.9608 24.0836 67.4808 24.2647L67.0954 27.1355C66.5522 27.1273 66.073 27.4828 65.9154 28.0109L57.5437 26.52C57.5044 25.9867 57.148 25.5174 56.651 25.3445L57.0364 22.4737C57.6027 22.4829 58.0981 22.0974 58.2344 21.5325L66.5854 23.0197ZM66.7936 22.8508L58.0694 21.2972C58.0674 21.3195 58.0654 21.3418 58.0623 21.3649C57.9825 21.9594 57.4462 22.3572 56.8644 22.2536L56.4291 25.4955C56.9884 25.5951 57.3864 26.1222 57.3452 26.6916L66.0694 28.2453C66.1492 27.6508 66.6855 27.253 67.2674 27.3566L67.7026 24.1147C67.1207 24.0111 66.7138 23.4453 66.7936 22.8508Z" fill="#2E7D32" fill-opacity="0.2"/>
<path d="M61.4189 21.3603L63.5859 21.7462L62.5572 29.4089L60.3902 29.023L61.4189 21.3603Z" fill="#FFECB3" fill-opacity="0.2"/>
<path opacity="0.5" d="M60.5547 27.7977L62.7217 28.1837L62.5572 29.4088L60.3902 29.0229L60.5547 27.7977Z" fill="#FFB74D" fill-opacity="0.2"/>
<path opacity="0.2" d="M67.9665 22.6294C68.1496 22.662 68.2779 22.8403 68.2528 23.0274L67.3419 29.813C67.3169 29.9991 67.1489 30.1237 66.9668 30.0912L56.0077 28.1395C55.8255 28.1071 55.6981 27.9299 55.7231 27.7438L56.6341 20.9573C56.6592 20.7702 56.8283 20.6448 57.0114 20.6774L67.9666 22.6284M67.98 22.5288L57.0248 20.5778C56.7875 20.5355 56.5682 20.6973 56.5355 20.9407L55.6246 27.7263C55.5922 27.9677 55.7579 28.1981 55.9942 28.2401L66.9523 30.1917C67.1886 30.2337 67.4069 30.0718 67.4393 29.8304L68.3504 23.0438C68.3839 22.8015 68.2173 22.571 67.98 22.5288Z" fill="#424242" fill-opacity="0.2"/>
<path d="M91.7328 18.0761L84.2881 27.5426C84.1276 27.7467 83.8695 27.7793 83.7123 27.6153L79.294 23.0058C79.1361 22.8411 79.1382 22.5414 79.3 22.3356L86.742 12.8725C86.9032 12.6675 87.162 12.6341 87.3205 12.7994L91.7388 17.409C91.8966 17.5736 91.8933 17.872 91.7328 18.0761Z" fill="#2E7D32" fill-opacity="0.2"/>
<path d="M90.9437 17.2344L83.483 26.7212C83.3272 26.9194 83.077 26.951 82.9244 26.7918L79.2946 23.005C79.1368 22.8403 79.1388 22.5405 79.3007 22.3347L86.7427 12.8716C86.9039 12.6667 87.1627 12.6332 87.3212 12.7986L90.9502 16.5847C91.1028 16.7455 91.1002 17.0354 90.9437 17.2344Z" fill="url(#paint3_linear_58_2)" fill-opacity="0.2"/>
<path d="M83.978 22.3765C83.897 22.292 83.8001 22.2568 83.6879 22.2716C83.5756 22.2864 83.4282 22.3566 83.2476 22.4828C83.0015 22.6633 82.7893 22.7611 82.6111 22.7745C82.4321 22.7888 82.272 22.7214 82.1305 22.5737C81.9857 22.4226 81.9097 22.245 81.9024 22.0409C81.8945 21.8361 81.9565 21.6307 82.0865 21.4241L81.8582 21.1858C81.8246 21.1508 81.8248 21.0865 81.8586 21.0435L81.9335 20.9482C81.9673 20.9052 82.0228 20.8987 82.0563 20.9337L82.2859 21.1734C82.4554 21.005 82.6333 20.922 82.82 20.9251C82.9877 20.9282 83.1525 21.0051 83.315 21.1564C83.3466 21.1863 83.3465 21.2445 83.316 21.2832L83.1788 21.4578C83.1497 21.4949 83.1041 21.4995 83.0725 21.4726C82.9645 21.3768 82.8538 21.3288 82.7403 21.3284C82.6076 21.3281 82.4906 21.3916 82.3898 21.5198C82.2845 21.6538 82.2306 21.7849 82.2296 21.9127C82.2278 22.0399 82.2757 22.1558 82.3724 22.2568C82.4625 22.3509 82.5641 22.3878 82.6763 22.3684C82.7886 22.349 82.9347 22.2759 83.1133 22.1492C83.2919 22.0225 83.4453 21.9386 83.5742 21.8966C83.7023 21.8554 83.8192 21.8469 83.9247 21.8742C84.0303 21.9015 84.1297 21.9639 84.2232 22.0614C84.3719 22.2167 84.4466 22.399 84.4472 22.6085C84.4479 22.8179 84.376 23.0345 84.2301 23.2582L84.4209 23.4574C84.4544 23.4924 84.4542 23.5567 84.4204 23.5997L84.3469 23.6933C84.3131 23.7363 84.2576 23.7428 84.2241 23.7078L84.0333 23.5086C83.8531 23.7028 83.666 23.8067 83.4706 23.8192C83.2963 23.8306 83.1301 23.7646 82.9735 23.621C82.9412 23.592 82.9421 23.533 82.9726 23.4942L83.1111 23.318C83.1389 23.2826 83.1831 23.2735 83.2128 23.2998C83.3194 23.3943 83.4295 23.4355 83.5431 23.4236C83.6738 23.4097 83.7988 23.3283 83.9181 23.1766C84.0341 23.029 84.0979 22.8838 84.1089 22.7403C84.1166 22.5979 84.0734 22.4761 83.978 22.3765Z" fill="white" fill-opacity="0.2"/>
<path d="M84.2811 23.3114L84.0292 23.5027L82.0953 21.4326L82.0297 21.3642L82.2882 21.1767L84.2234 23.2512L84.2811 23.3114Z" fill="white" fill-opacity="0.2"/>
<path opacity="0.5" d="M87.7187 19.2886C88.402 18.4196 88.4135 17.1492 87.7443 16.4511C87.0751 15.753 85.9787 15.8914 85.2953 16.7604C84.612 17.6293 84.6005 18.8997 85.2697 19.5978C85.9389 20.2959 87.0353 20.1575 87.7187 19.2886Z" fill="#2E7D32" fill-opacity="0.2"/>
<path d="M86.3314 14.4847C86.7426 14.7805 87.3092 14.709 87.7267 14.3085L89.5959 16.2586C89.2911 16.7766 89.2852 17.4331 89.5813 17.8752L83.8943 25.1067C83.4861 24.8511 82.9498 24.9356 82.551 25.3184L80.6817 23.3683C81 22.8287 80.993 22.1402 80.6585 21.6983L86.3314 14.4847ZM86.3235 14.1916L80.3971 21.7275C80.4122 21.7417 80.4272 21.7558 80.4423 21.7716C80.8294 22.1754 80.8227 22.9101 80.4275 23.4127L82.5384 25.6149C82.9183 25.1319 83.5194 25.0391 83.9096 25.392L89.836 17.8561C89.4489 17.4522 89.4556 16.7176 89.8509 16.215L87.7399 14.0127C87.3447 14.5153 86.7106 14.5954 86.3235 14.1916Z" fill="#2E7D32" fill-opacity="0.2"/>
<path d="M82.2857 18.5407L83.7578 16.6688L88.7472 21.8742L87.2751 23.7461L82.2857 18.5407Z" fill="#FFECB3" fill-opacity="0.2"/>
<path opacity="0.5" d="M86.4773 22.9138L87.9494 21.0419L88.7471 21.8741L87.2751 23.746L86.4773 22.9138Z" fill="#FFB74D" fill-opacity="0.2"/>
<path opacity="0.2" d="M86.8083 12.9416C86.9327 12.7834 87.1325 12.7582 87.2544 12.8853L91.6727 17.4948C91.7938 17.6212 91.7918 17.8513 91.668 18.0086L84.2234 27.4751C84.0996 27.6324 83.9011 27.6575 83.7799 27.5311L79.361 22.9209C79.2391 22.7938 79.2412 22.5622 79.3656 22.404L86.8076 12.9409M86.7428 12.8733L79.3008 22.3364C79.1396 22.5413 79.1362 22.8413 79.2947 23.0066L83.713 27.6161C83.8702 27.7801 84.1284 27.7475 84.2889 27.5434L91.7329 18.0778C91.8934 17.8737 91.8961 17.5746 91.7389 17.4106L87.3199 12.8004C87.1627 12.6349 86.9039 12.6683 86.7428 12.8733Z" fill="#424242" fill-opacity="0.2"/>
<path d="M73.7011 14.1483L68.7818 8.45481C68.6758 8.33204 68.6761 8.13321 68.7825 8.01124L71.7734 4.58304C71.8802 4.46057 72.0533 4.4607 72.1603 4.58449L77.0778 10.276C77.1843 10.3992 77.1844 10.5986 77.0771 10.7216L74.0862 14.1498C73.9794 14.2723 73.8072 14.2711 73.7011 14.1483Z" fill="#2E7D32" fill-opacity="0.2"/>
<path d="M74.2461 13.5361L69.3162 7.83031C69.2132 7.71113 69.2135 7.51841 69.3168 7.4L71.7739 4.58365C71.8808 4.46118 72.0538 4.46132 72.1608 4.5851L77.0783 10.2766C77.1848 10.3999 77.185 10.5992 77.0777 10.7222L74.621 13.538C74.5168 13.6564 74.3495 13.6558 74.2461 13.5361Z" fill="url(#paint4_linear_58_2)" fill-opacity="0.2"/>
<path d="M71.7938 8.19175C71.8484 8.12923 71.8755 8.05438 71.8748 7.96772C71.874 7.88105 71.8437 7.76727 71.7833 7.62789C71.696 7.43796 71.6542 7.27418 71.6589 7.13655C71.6631 6.99841 71.7133 6.8747 71.8086 6.76542C71.9062 6.65359 72.0143 6.59482 72.1329 6.5891C72.252 6.58287 72.3665 6.63067 72.477 6.73096L72.6309 6.55458C72.6535 6.52865 72.6907 6.52878 72.7132 6.55485L72.7632 6.61263C72.7857 6.6387 72.7856 6.68152 72.763 6.70745L72.6082 6.88484C72.6939 7.01564 72.7295 7.15289 72.7146 7.29711C72.7011 7.42655 72.6452 7.55381 72.5462 7.67939C72.5267 7.7038 72.4931 7.70368 72.4728 7.68016L72.3813 7.57433C72.3619 7.55184 72.3624 7.51666 72.3801 7.49225C72.4431 7.40886 72.4787 7.32333 72.4868 7.23568C72.4963 7.13324 72.4677 7.04291 72.4005 6.9652C72.3303 6.88391 72.2582 6.84238 72.1843 6.84162C72.1108 6.84035 72.0404 6.87733 71.9752 6.95205C71.9144 7.02169 71.886 7.1001 71.8894 7.18677C71.8928 7.27345 71.9249 7.38622 71.9857 7.52406C72.0466 7.66191 72.0844 7.78031 72.0998 7.87977C72.1146 7.97872 72.1114 8.06894 72.0882 8.15043C72.0651 8.23191 72.022 8.30875 71.9591 8.38093C71.8588 8.4958 71.7481 8.55354 71.6268 8.55416C71.5055 8.55477 71.3852 8.49931 71.2659 8.38676L71.1373 8.53416C71.1147 8.56008 71.0775 8.55996 71.055 8.53389L71.006 8.47713C70.9834 8.45106 70.9835 8.40824 71.0061 8.38231L71.1347 8.23491C71.0349 8.09591 70.9878 7.95148 70.9943 7.80061C70.9998 7.66604 71.0496 7.53775 71.1436 7.41673C71.1627 7.39182 71.1968 7.39244 71.2171 7.41596L71.3094 7.52281C71.328 7.54429 71.3301 7.57845 71.3128 7.60133C71.2507 7.68371 71.2192 7.76874 71.2181 7.85642C71.2171 7.95735 71.2554 8.05383 71.3349 8.14586C71.4122 8.23533 71.4918 8.28454 71.5741 8.29297C71.656 8.29885 71.7295 8.26545 71.7938 8.19175Z" fill="white" fill-opacity="0.2"/>
<path d="M71.2292 8.42878L71.1357 8.23376L72.4734 6.73513L72.5177 6.68431L72.6086 6.88442L71.2682 8.38406L71.2292 8.42878Z" fill="white" fill-opacity="0.2"/>
<path opacity="0.5" d="M73.2977 11.0597C73.7493 11.5823 74.4825 11.5851 74.9355 11.0659C75.3885 10.5466 75.3897 9.70205 74.9382 9.17943C74.4866 8.65682 73.7533 8.65407 73.3004 9.17329C72.8474 9.69252 72.8462 10.5371 73.2977 11.0597Z" fill="#2E7D32" fill-opacity="0.2"/>
<path d="M76.1765 9.96718C75.9751 10.2856 75.9745 10.722 76.175 11.0419L74.9096 12.4923C74.6329 12.2598 74.254 12.2584 73.9765 12.4888L70.2187 8.13948C70.3966 7.82353 70.3875 7.41052 70.1958 7.10492L71.4611 5.65456C71.7494 5.89731 72.1478 5.88861 72.4279 5.62862L76.1765 9.96718ZM76.3465 9.95966L72.4304 5.42724C72.4211 5.43893 72.4118 5.45062 72.4016 5.46231C72.1396 5.76264 71.7155 5.76105 71.4543 5.45876L70.0254 7.09663C70.2764 7.38716 70.2855 7.85014 70.0527 8.15262L73.9687 12.685C74.2308 12.3847 74.6548 12.3863 74.916 12.6886L76.345 11.0507C76.0838 10.7484 76.0845 10.26 76.3465 9.95966Z" fill="#2E7D32" fill-opacity="0.2"/>
<path d="M74.1322 6.86783L75.1049 7.99365L71.7274 11.865L70.7547 10.7392L74.1322 6.86783Z" fill="#FFECB3" fill-opacity="0.2"/>
<path opacity="0.5" d="M71.2947 10.1202L72.2674 11.246L71.7274 11.865L70.7547 10.7391L71.2947 10.1202Z" fill="#FFB74D" fill-opacity="0.2"/>
<path opacity="0.2" d="M77.0329 10.3274C77.1151 10.4225 77.1149 10.5765 77.0324 10.671L74.0415 14.0992C73.9594 14.1933 73.8267 14.1928 73.7449 14.0981L68.8256 8.4046C68.7439 8.30997 68.7441 8.15702 68.8261 8.063L71.8175 4.63429C71.8999 4.53977 72.0336 4.54027 72.1158 4.63541L77.0333 10.3269M77.0772 10.2766L72.1597 4.5851C72.0532 4.46183 71.8801 4.46067 71.7728 4.58365L68.7819 8.01185C68.6755 8.13382 68.6752 8.33265 68.7813 8.45542L73.7001 14.1484C73.8062 14.2712 73.9788 14.2718 74.0852 14.1499L77.0766 10.7212C77.1839 10.5992 77.1837 10.3999 77.0772 10.2766Z" fill="#424242" fill-opacity="0.2"/>
<path d="M53.5994 16.207L41.2876 12.1549C41.0222 12.0675 40.8604 11.779 40.9268 11.5113L42.7935 3.9874C42.8602 3.7186 43.1301 3.57099 43.3978 3.65909L55.7051 7.70978C55.9717 7.79751 56.1345 8.08635 56.0676 8.35626L54.2009 15.8802C54.1342 16.149 53.8648 16.2944 53.5994 16.207Z" fill="#2E7D32" fill-opacity="0.2"/>
<path d="M53.9493 14.854L41.611 10.7931C41.3532 10.7083 41.1965 10.4287 41.261 10.1688L42.7945 3.9877C42.8612 3.71891 43.1311 3.57129 43.3988 3.65939L55.7061 7.71008C55.9727 7.79782 56.1355 8.08666 56.0685 8.35656L54.5353 14.5366C54.4694 14.7972 54.2081 14.9392 53.9493 14.854Z" fill="url(#paint5_linear_58_2)" fill-opacity="0.2"/>
<path d="M45.8092 9.20896C45.8406 9.07414 45.8177 8.9428 45.7402 8.81604C45.6628 8.68929 45.5145 8.546 45.2961 8.38879C44.9906 8.17849 44.7802 7.97074 44.6665 7.76486C44.5515 7.55857 44.5222 7.33724 44.5771 7.10158C44.6332 6.86043 44.7528 6.68894 44.9357 6.5871C45.1189 6.48417 45.3425 6.46417 45.6058 6.52451L45.6944 6.14415C45.7074 6.08825 45.7664 6.05915 45.8251 6.07972L45.955 6.12529C46.0137 6.14586 46.0513 6.20884 46.0383 6.26474L45.9492 6.64729C46.2 6.77201 46.3773 6.94562 46.4807 7.16922C46.5733 7.37004 46.5966 7.60111 46.5504 7.86354C46.541 7.91477 46.4876 7.9411 46.4347 7.92255L46.1966 7.83906C46.146 7.82132 46.1158 7.76924 46.1225 7.7194C46.1489 7.54726 46.1299 7.39359 46.0656 7.25841C45.9904 7.10044 45.8656 6.99026 45.6908 6.92896C45.5079 6.86483 45.3572 6.86057 45.2394 6.91768C45.1219 6.97368 45.0428 7.08349 45.0053 7.24462C44.9703 7.39479 44.9942 7.53242 45.0759 7.6571C45.1576 7.78177 45.3078 7.92217 45.5255 8.07679C45.7433 8.2314 45.9075 8.37554 46.0193 8.50961C46.13 8.64328 46.2043 8.7784 46.2393 8.91637C46.2744 9.05434 46.2738 9.20115 46.2375 9.35679C46.1798 9.60452 46.0552 9.77659 45.8636 9.87301C45.672 9.96943 45.4325 9.98268 45.1444 9.91128L45.0704 10.2292C45.0574 10.2851 44.9983 10.3142 44.9397 10.2936L44.812 10.2488C44.7534 10.2283 44.7158 10.1653 44.7288 10.1094L44.8028 9.7915C44.5224 9.66587 44.3206 9.49077 44.198 9.26401C44.0883 9.06192 44.0543 8.8342 44.0967 8.58233C44.105 8.5307 44.1596 8.50477 44.2125 8.52332L44.4528 8.60761C44.5011 8.62455 44.5346 8.67305 44.5273 8.7203C44.5014 8.89025 44.5263 9.04004 44.6018 9.16969C44.689 9.31882 44.8347 9.43038 45.0417 9.50297C45.2429 9.57355 45.4124 9.58316 45.5502 9.53073C45.6851 9.47489 45.7722 9.3679 45.8092 9.20896Z" fill="white" fill-opacity="0.2"/>
<path d="M45.1101 10.0253L44.7759 9.80955L45.6122 6.51042L45.6389 6.39936L45.9733 6.62483L45.1335 9.92758L45.1101 10.0253Z" fill="white" fill-opacity="0.2"/>
<path opacity="0.5" d="M50.4517 12.0742C51.5818 12.4462 52.7271 11.8239 53.0098 10.6843C53.2926 9.54479 52.6056 8.31948 51.4755 7.94752C50.3454 7.57557 49.2001 8.19784 48.9174 9.33739C48.6346 10.4769 49.3216 11.7023 50.4517 12.0742Z" fill="#2E7D32" fill-opacity="0.2"/>
<path d="M54.0484 8.03188C53.9941 8.66546 54.349 9.29863 54.9225 9.59113L54.1328 12.7743C53.5117 12.6736 52.9199 12.9951 52.6753 13.5661L43.2703 10.4707C43.2901 9.86068 42.939 9.26981 42.3909 8.9905L43.1807 5.80738C43.828 5.91307 44.442 5.5602 44.6666 4.94408L54.0484 8.03188ZM54.3072 7.8758L44.5063 4.65003C44.5013 4.67493 44.4963 4.69983 44.4899 4.72548C44.3264 5.38464 43.664 5.7445 43.0103 5.52935L42.1185 9.12403C42.7468 9.33081 43.1385 9.99417 43.0223 10.6315L52.8232 13.8573C52.9868 13.1981 53.6491 12.8382 54.3028 13.0534L55.1946 9.45872C54.5409 9.24357 54.1437 8.53495 54.3072 7.8758Z" fill="#2E7D32" fill-opacity="0.2"/>
<path d="M48.3339 5.28506L50.7684 6.08632L48.6604 14.5828L46.2259 13.7816L48.3339 5.28506Z" fill="#FFECB3" fill-opacity="0.2"/>
<path opacity="0.5" d="M46.563 12.423L48.9975 13.2242L48.6605 14.5827L46.226 13.7814L46.563 12.423Z" fill="#FFB74D" fill-opacity="0.2"/>
<path opacity="0.2" d="M55.6772 7.82244C55.8829 7.89015 56.0081 8.11353 55.9567 8.32098L54.09 15.8449C54.0388 16.0513 53.8314 16.164 53.6268 16.0966L41.315 12.0445C41.1104 11.9771 40.986 11.7552 41.0372 11.5489L42.9041 4.02381C42.9556 3.81636 43.1644 3.70292 43.3701 3.77063L55.6774 7.82132M55.7048 7.71091L43.3975 3.66022C43.1309 3.57248 42.8602 3.71862 42.7932 3.98852L40.9266 11.5125C40.8601 11.7802 41.0219 12.0686 41.2873 12.156L53.598 16.2078C53.8634 16.2952 54.1331 16.1487 54.1995 15.881L56.0664 8.35591C56.1342 8.08748 55.9714 7.79864 55.7048 7.71091Z" fill="#424242" fill-opacity="0.2"/>
<path d="M39.6435 22.2072L28.9343 30.2919C28.7034 30.4662 28.4082 30.4187 28.2757 30.1859L24.5513 23.6413C24.4183 23.4075 24.4977 23.0757 24.7305 22.8999L35.4359 14.8181C35.6677 14.6431 35.9639 14.6899 36.0975 14.9247L39.8219 21.4693C39.9549 21.7031 39.8744 22.0329 39.6435 22.2072Z" fill="#2E7D32" fill-opacity="0.2"/>
<path d="M38.983 21.018L28.2508 29.1201C28.0266 29.2893 27.7404 29.2432 27.6118 29.0172L24.5522 23.6407C24.4191 23.4069 24.4985 23.0751 24.7314 22.8993L35.4367 14.8175C35.6685 14.6425 35.9648 14.6893 36.0984 14.9241L39.1574 20.2996C39.2857 20.5274 39.2082 20.848 38.983 21.018Z" fill="url(#paint6_linear_58_2)" fill-opacity="0.2"/>
<path d="M29.9278 24.4272C29.8616 24.3096 29.7631 24.2428 29.6327 24.2276C29.5022 24.2124 29.3161 24.2493 29.0763 24.3394C28.747 24.4719 28.48 24.5213 28.2759 24.4859C28.0707 24.4513 27.9106 24.3304 27.7949 24.125C27.6766 23.9148 27.6433 23.6944 27.6949 23.4638C27.7459 23.2323 27.8757 23.0198 28.0823 22.8253L27.8956 22.4938C27.8682 22.4451 27.8873 22.3732 27.9378 22.3346L28.0498 22.2491C28.1004 22.2106 28.1646 22.2189 28.192 22.2676L28.3797 22.6011C28.6194 22.4605 28.8435 22.4179 29.0524 22.4743C29.2398 22.5252 29.4023 22.6579 29.5406 22.8733C29.5673 22.9158 29.5501 22.9808 29.5045 23.0156L29.2993 23.1722C29.2557 23.2055 29.2032 23.1978 29.1755 23.1588C29.0823 23.0209 28.972 22.9357 28.8446 22.9032C28.6957 22.8653 28.5456 22.9033 28.395 23.0183C28.2373 23.1386 28.1385 23.2701 28.0998 23.4129C28.0607 23.5548 28.0804 23.6981 28.1595 23.8386C28.2332 23.9695 28.3364 24.0396 28.4682 24.0496C28.6 24.0597 28.7855 24.0192 29.0232 23.9279C29.2609 23.8366 29.4578 23.7861 29.6148 23.7755C29.7708 23.7657 29.9046 23.7893 30.0151 23.8497C30.1257 23.9101 30.2191 24.0082 30.2955 24.1438C30.417 24.3597 30.4475 24.5851 30.3869 24.8198C30.3263 25.0545 30.1821 25.2766 29.9526 25.4858L30.1086 25.7629C30.136 25.8116 30.117 25.8835 30.0664 25.9221L29.9564 26.0061C29.9058 26.0446 29.8416 26.0363 29.8142 25.9876L29.6582 25.7105C29.399 25.8769 29.1584 25.9404 28.9353 25.8989C28.7361 25.8624 28.5689 25.7415 28.435 25.5364C28.4073 25.4947 28.4255 25.4289 28.4711 25.3941L28.6783 25.236C28.7199 25.2042 28.7723 25.2066 28.7978 25.2444C28.8899 25.3804 29.0015 25.4578 29.1326 25.4766C29.2835 25.498 29.4477 25.4423 29.6261 25.3061C29.7996 25.1737 29.9138 25.0292 29.9682 24.8716C30.0186 24.7143 30.0058 24.5657 29.9278 24.4272Z" fill="white" fill-opacity="0.2"/>
<path d="M30.0139 25.5821L29.6679 25.7272L28.0699 22.8194L28.0152 22.7228L28.3676 22.5839L29.9658 25.4971L30.0139 25.5821Z" fill="white" fill-opacity="0.2"/>
<path opacity="0.5" d="M34.8705 22.2503C35.8535 21.5082 36.1931 20.103 35.629 19.1118C35.065 18.1206 33.8108 17.9187 32.8278 18.6608C31.8448 19.4029 31.5052 20.808 32.0693 21.7992C32.6333 22.7904 33.8875 22.9924 34.8705 22.2503Z" fill="#2E7D32" fill-opacity="0.2"/>
<path d="M34.5647 16.4729C34.9456 16.9344 35.5937 17.0387 36.1607 16.7299L37.7363 19.4987C37.2643 19.9744 37.0888 20.7005 37.3042 21.2868L29.1234 27.4627C28.7354 27.0469 28.1177 26.9668 27.576 27.262L26.0003 24.4932C26.4929 23.998 26.6622 23.2321 26.4042 22.6336L34.5647 16.4729ZM34.6314 16.1453L26.1062 22.5812C26.1193 22.6018 26.1324 22.6225 26.1451 22.6448C26.4713 23.2181 26.2749 24.0307 25.7063 24.46L27.4857 27.5868C28.0322 27.1742 28.7241 27.2662 29.0669 27.7841L37.5921 21.3482C37.2659 20.7748 37.4623 19.9622 38.0309 19.5329L36.2515 16.4062C35.6829 16.8354 34.9576 16.7186 34.6314 16.1453Z" fill="#2E7D32" fill-opacity="0.2"/>
<path d="M29.025 19.6595L31.1426 18.0608L35.3483 25.4514L33.2307 27.05L29.025 19.6595Z" fill="#FFECB3" fill-opacity="0.2"/>
<path opacity="0.5" d="M32.5583 25.8683L34.6758 24.2696L35.3483 25.4513L33.2307 27.0499L32.5583 25.8683Z" fill="#FFB74D" fill-opacity="0.2"/>
<path opacity="0.2" d="M35.4916 14.9161C35.6706 14.781 35.8992 14.8178 36.0019 14.9983L39.7262 21.5429C39.8283 21.7223 39.7668 21.9768 39.5888 22.1112L28.8797 30.1959C28.7017 30.3302 28.4746 30.2937 28.3724 30.1142L24.6476 23.5686C24.5449 23.3882 24.6068 23.132 24.7857 22.9969L35.4911 14.9151M35.4364 14.8191L24.7311 22.9009C24.4992 23.0759 24.4183 23.4075 24.5519 23.6422L28.2762 30.1868C28.4087 30.4197 28.704 30.4672 28.9349 30.2929L39.6431 22.2089C39.874 22.0346 39.954 21.7038 39.8215 21.471L36.0966 14.9254C35.9645 14.6909 35.6683 14.6441 35.4364 14.8191Z" fill="#424242" fill-opacity="0.2"/>
<path d="M22.5007 13.7056L15.8868 8.28789C15.7441 8.17107 15.7006 7.95902 15.7896 7.81485L18.2918 3.76251C18.3812 3.61774 18.5697 3.59491 18.7135 3.7127L25.3252 9.12848C25.4684 9.24578 25.5125 9.45831 25.4227 9.60368L22.9206 13.656C22.8312 13.8008 22.6434 13.8224 22.5007 13.7056Z" fill="#2E7D32" fill-opacity="0.2"/>
<path d="M22.9593 12.9804L16.3311 7.55102C16.1926 7.43761 16.1504 7.23209 16.2368 7.09213L18.2924 3.76303C18.3818 3.61826 18.5704 3.59543 18.7142 3.71322L25.3258 9.129C25.469 9.2463 25.5131 9.45883 25.4234 9.6042L23.3682 12.9327C23.2808 13.0728 23.0984 13.0943 22.9593 12.9804Z" fill="url(#paint7_linear_58_2)" fill-opacity="0.2"/>
<path d="M19.1242 7.61085C19.1689 7.53794 19.1804 7.45467 19.1585 7.36162C19.1366 7.26858 19.0756 7.1495 18.9754 7.00609C18.8332 6.81117 18.7475 6.63958 18.7191 6.49121C18.6901 6.34233 18.7152 6.20413 18.7933 6.07668C18.8733 5.94627 18.9777 5.87177 19.1066 5.85316C19.2359 5.83395 19.3733 5.87328 19.5191 5.96943L19.6452 5.76374C19.6637 5.73351 19.7046 5.72974 19.7356 5.75539L19.8045 5.81222C19.8356 5.83787 19.846 5.88389 19.8274 5.91412L19.7006 6.121C19.8265 6.25254 19.899 6.39628 19.9178 6.5528C19.9345 6.69331 19.904 6.83593 19.8259 6.98127C19.8104 7.00954 19.7734 7.01295 19.7454 6.98982L19.6192 6.8857C19.5924 6.86357 19.5844 6.82573 19.5979 6.79763C19.6468 6.70141 19.665 6.60577 19.6526 6.51073C19.6381 6.39967 19.5847 6.30562 19.492 6.22917C19.3951 6.1492 19.3058 6.11214 19.2245 6.11909C19.1435 6.12545 19.0751 6.17259 19.0217 6.25972C18.9719 6.34093 18.9597 6.42818 18.9845 6.52095C19.0094 6.61373 19.0721 6.73153 19.1724 6.87325C19.2728 7.01498 19.3432 7.13822 19.3843 7.24348C19.4247 7.34824 19.4431 7.44553 19.4375 7.53552C19.4319 7.62551 19.4033 7.7126 19.3517 7.79677C19.2695 7.93073 19.162 8.00442 19.0289 8.01782C18.8959 8.03121 18.7502 7.98426 18.5918 7.87586L18.4864 8.04776C18.4679 8.07799 18.427 8.08176 18.3959 8.05611L18.3283 8.00028C18.2972 7.97463 18.2868 7.92861 18.3054 7.89838L18.4107 7.72648C18.2673 7.58761 18.1804 7.43737 18.1508 7.27457C18.1241 7.1294 18.1476 6.98631 18.2214 6.8464C18.2363 6.81762 18.2739 6.81471 18.3019 6.83785L18.4293 6.94296C18.4549 6.96409 18.4656 7.00057 18.4522 7.02698C18.404 7.12202 18.39 7.2167 18.4102 7.31102C18.4336 7.41959 18.4992 7.51922 18.609 7.60976C18.7156 7.69777 18.815 7.74229 18.9075 7.7427C18.9988 7.74042 19.0715 7.6968 19.1242 7.61085Z" fill="white" fill-opacity="0.2"/>
<path d="M18.5542 7.93449L18.4019 7.7328L19.5219 5.96478L19.5587 5.90493L19.7093 6.11243L18.5866 7.88183L18.5542 7.93449Z" fill="white" fill-opacity="0.2"/>
<path opacity="0.5" d="M21.3803 10.4659C21.9874 10.9632 22.7868 10.8688 23.1658 10.255C23.5447 9.64129 23.3598 8.7406 22.7527 8.2433C22.1456 7.74601 21.3462 7.84041 20.9672 8.45417C20.5883 9.06792 20.7732 9.96861 21.3803 10.4659Z" fill="#2E7D32" fill-opacity="0.2"/>
<path d="M24.2753 8.91887C24.1261 9.28511 24.2217 9.75053 24.5107 10.065L23.4521 11.7794C23.0993 11.5683 22.6863 11.617 22.4349 11.8996L17.3824 7.76095C17.5066 7.40045 17.4055 6.96129 17.1294 6.66089L18.1879 4.94648C18.5555 5.16704 18.9875 5.10488 19.2354 4.79048L24.2753 8.91887ZM24.4588 8.88829L19.1937 4.57542C19.1861 4.58913 19.1785 4.60283 19.17 4.61664C18.9508 4.97166 18.4885 5.02626 18.1373 4.7386L16.9419 6.67467C17.2794 6.95113 17.3914 7.44357 17.2045 7.797L22.4696 12.1099C22.6889 11.7548 23.1511 11.7002 23.5023 11.9879L24.6978 10.0518C24.3466 9.76418 24.2396 9.2433 24.4588 8.88829Z" fill="#2E7D32" fill-opacity="0.2"/>
<path d="M21.365 5.88562L22.6728 6.9569L19.8472 11.5331L18.5394 10.4618L21.365 5.88562Z" fill="#FFECB3" fill-opacity="0.2"/>
<path opacity="0.5" d="M18.9912 9.73007L20.2991 10.8014L19.8473 11.533L18.5395 10.4617L18.9912 9.73007Z" fill="#FFB74D" fill-opacity="0.2"/>
<path opacity="0.2" d="M25.2877 9.18907C25.3983 9.2796 25.432 9.4438 25.363 9.55553L22.8608 13.6079C22.7922 13.719 22.6474 13.7361 22.5375 13.6461L15.9235 8.22833C15.8136 8.13829 15.7801 7.97518 15.8487 7.86405L18.3513 3.8111C18.4202 3.69937 18.566 3.68216 18.6765 3.77269L25.2881 9.18847M25.3248 9.129L18.7132 3.71322C18.57 3.59592 18.3812 3.61766 18.2915 3.76303L15.7893 7.81537C15.7003 7.95954 15.7438 8.17159 15.8864 8.2884L22.4998 13.7056C22.6424 13.8225 22.8306 13.8002 22.9196 13.6561L25.4222 9.60312C25.5122 9.45883 25.468 9.2463 25.3248 9.129Z" fill="#424242" fill-opacity="0.2"/>
</g>
<g opacity="0.3" filter="url(#filter0_d_58_2)">
<path d="M9.81024 0.930233C9.08463 0.521481 7.87333 -0.601455 7.12372 0.399216C6.51401 1.30953 7.59627 3.17871 8.62394 3.76549C7.98596 3.75055 7.32633 4.42774 7.33697 5.13053C7.32317 6.70214 9.04207 7.69954 10.3899 7.75724C9.07403 8.33773 9.58541 10.107 10.488 10.8274C11.3905 11.5479 13.1043 11.234 14.0456 10.867C14.0456 10.867 17.0243 9.67193 15.4472 8.26272C12.7378 5.84212 13.587 2.08187 12.8667 -0.637262C12.5876 -1.71161 11.1633 -3.78285 9.69793 -3.03562C8.3935 -2.29577 9.40669 -0.0739051 9.81024 0.930233Z" fill="#CFD8DC"/>
<path opacity="0.2" d="M10.7133 -2.49782C11.4365 -2.1841 12.107 -1.11449 12.2736 -0.485007C12.482 0.303566 12.5504 1.20595 12.6247 2.16456C12.7932 4.37583 12.9847 6.88237 15.0388 8.71662C15.2244 8.88443 15.3108 9.02592 15.2896 9.1443C15.2224 9.53136 14.392 10.0606 13.8225 10.2902C12.9974 10.6137 11.8042 10.7875 11.1206 10.491C11.0274 10.4505 10.9447 10.4012 10.8742 10.3472C10.4503 10.0089 10.1564 9.3477 10.2188 8.87126C10.2527 8.60737 10.3881 8.43451 10.6425 8.31999C10.9038 8.20509 11.0527 7.92393 10.9973 7.64145C10.9586 7.43669 10.8198 7.26908 10.6362 7.18943C10.5684 7.16001 10.4957 7.1419 10.4169 7.13792C10.0809 7.12309 9.70367 7.03328 9.35619 6.88255C9.02567 6.73917 7.94327 6.18571 7.95357 5.13285C7.95319 5.12598 7.95442 5.12315 7.95405 5.11628C7.9528 4.94119 8.04508 4.73619 8.19941 4.58161C8.32896 4.45319 8.48741 4.37424 8.61031 4.3772C8.89333 4.3825 9.14119 4.198 9.21881 3.92622C9.29361 3.65321 9.17599 3.36723 8.92835 3.22624C8.37336 2.91164 7.76575 2.06066 7.60262 1.36892C7.54113 1.10057 7.54819 0.875387 7.62678 0.748366C7.71546 0.629072 7.82268 0.521182 8.24925 0.706228C8.50915 0.818972 8.79378 1.00622 9.04415 1.17189C9.20582 1.27895 9.36024 1.3795 9.50826 1.46385C9.52681 1.47525 9.54658 1.48383 9.56636 1.49241C9.78388 1.58677 10.0355 1.54826 10.2186 1.38935C10.4147 1.21594 10.481 0.939263 10.385 0.696235L10.3054 0.500588C9.96499 -0.331831 9.25733 -2.05865 9.99476 -2.49735C10.2245 -2.60914 10.4534 -2.61056 10.7133 -2.49782ZM10.9584 -3.06281C10.5629 -3.23438 10.134 -3.25932 9.69914 -3.03844C8.39349 -2.29576 9.40507 -0.077948 9.81145 0.927415C9.45289 0.724877 8.97741 0.350788 8.49434 0.141232C7.99997 -0.0732256 7.5028 -0.110999 7.12211 0.395173C6.51239 1.30549 7.59466 3.17467 8.62233 3.76145C7.98435 3.74651 7.32471 4.4237 7.33536 5.12649C7.3257 6.21655 8.15343 7.03211 9.1111 7.44754C9.53202 7.63014 9.97633 7.73561 10.3883 7.75319C9.07242 8.33369 9.58379 10.1029 10.4863 10.8234C10.6032 10.9177 10.7327 10.9906 10.8739 11.0519C11.8203 11.4625 13.2242 11.182 14.0452 10.8601C14.0452 10.8601 17.024 9.66506 15.4468 8.25585C12.7375 5.83525 13.5866 2.075 12.8663 -0.64413C12.6695 -1.39747 11.9047 -2.65228 10.9584 -3.06281Z" fill="#424242"/>
<path d="M24.5599 1.73315L24.5756 1.74984L24.5599 1.73315Z" fill="url(#paint8_linear_58_2)"/>
<path d="M20.8369 20.4826C25.4998 17.9974 30.5603 16.0272 32.556 10.5523L32.5383 10.5312L23.3906 0.420382C23.1251 0.127278 22.6407 0.199138 22.4798 0.562334C20.889 4.17538 17.7371 6.21836 14.4185 7.98768C9.8521 10.4207 4.89989 12.4044 2.82282 17.6258C2.72451 17.8214 2.74891 18.067 2.90461 18.2419L2.90744 18.2432C4.11659 19.58 9.95672 26.0339 11.8334 28.1068C12.1871 28.4985 12.3984 28.7311 12.4145 28.7482L12.4161 28.7522C13.9334 24.5736 17.2785 22.3794 20.8369 20.4826Z" fill="url(#paint9_linear_58_2)"/>
<path d="M25.1561 4.7073L29.4877 9.49316C28.6998 10.4739 28.6419 11.8686 29.3538 12.9125C27.3133 15.3336 24.3727 16.8506 21.5274 18.3184L21.4978 18.3324C20.9479 18.6175 20.3777 18.9105 19.8228 19.2069C17.5228 20.4312 15.1604 21.8533 13.383 23.9388C13.2311 23.8326 13.0705 23.7461 12.8982 23.6714C12.0055 23.2841 10.9845 23.3783 10.1841 23.9004L5.85246 19.1146C6.34075 18.5074 6.56417 17.7215 6.45928 16.9342C6.45336 16.9014 6.44866 16.8658 6.44274 16.833L6.43842 16.8043C6.4309 16.7675 6.42338 16.7307 6.41586 16.6938C6.40674 16.6529 6.3948 16.6108 6.38568 16.57C6.37533 16.5319 6.36339 16.4898 6.34542 16.4384C6.33385 16.4032 6.32511 16.3691 6.31231 16.3367C6.28954 16.2732 6.26272 16.2112 6.23591 16.1492C6.22189 16.1196 6.20786 16.09 6.18622 16.0471C6.16138 15.996 6.13531 15.9478 6.10924 15.8996C6.09239 15.8688 6.07432 15.8408 6.05465 15.8088C6.02735 15.7633 5.99723 15.7167 5.95704 15.6624C5.94056 15.6384 5.92409 15.6145 5.90639 15.5934C5.90479 15.5893 5.89914 15.5869 5.89755 15.5828C7.93715 13.1715 10.8696 11.6576 13.7109 10.1915L13.7405 10.1774C14.2904 9.89237 14.8606 9.59931 15.4155 9.30295C17.7034 8.08344 20.0552 6.67012 21.8354 4.58592C22.0211 4.73028 22.2248 4.84884 22.4423 4.9432C23.3399 5.31915 24.3609 5.22499 25.1561 4.7073ZM25.2138 4.09458C24.4883 4.75328 23.4708 4.88587 22.629 4.52068C22.3691 4.40793 22.1231 4.24754 21.909 4.03715L21.9077 4.03997C21.8699 4.00341 21.832 3.96686 21.7954 3.92747L21.7901 3.9319C20.0621 6.11257 17.687 7.57956 15.2086 8.8977C14.6457 9.19726 14.0783 9.49154 13.5093 9.78177C10.4614 11.3529 7.41784 12.9294 5.32304 15.5686L5.30844 15.579C5.31126 15.5803 5.31126 15.5803 5.31286 15.5843C5.34506 15.6184 5.38008 15.6537 5.4151 15.6891C5.42235 15.6956 5.42555 15.7037 5.4328 15.7102C5.47545 15.7589 5.51527 15.8064 5.55386 15.8567C5.57156 15.8778 5.58521 15.9005 5.60168 15.9244C5.6286 15.9629 5.6527 16.0003 5.67679 16.0376C5.69327 16.0615 5.70851 16.0882 5.72093 16.1138C5.7438 16.1539 5.76545 16.1969 5.78709 16.2398C5.80112 16.2694 5.81636 16.2961 5.83038 16.3257C5.854 16.3796 5.8748 16.4323 5.89559 16.4849C5.90839 16.5173 5.91836 16.5485 5.9271 16.5825C5.93585 16.6165 5.94864 16.6489 5.95739 16.6829C5.96614 16.7169 5.97366 16.7537 5.9824 16.7877L6.00016 16.8861C6.00486 16.9217 6.0136 16.9557 6.0183 16.9913C6.12047 17.7539 5.85777 18.5529 5.24518 19.1062L10.1373 24.5112C10.8656 23.8537 11.8803 23.7199 12.7249 24.0863C12.9877 24.2003 13.2324 24.3635 13.4506 24.5723L13.464 24.5646L13.4652 24.5618C15.1936 22.388 17.5663 20.9267 20.0418 19.6073C20.6048 19.3078 21.1721 19.0135 21.7411 18.7232C24.7891 17.1521 27.8326 15.5756 29.9274 12.9364C29.9327 12.932 29.9351 12.9264 29.9404 12.9219C29.0439 11.9322 29.1206 10.4013 30.1103 9.5048L25.2138 4.09458Z" fill="#2E7D32"/>
<path d="M13.5843 18.0043C13.398 17.7993 13.1672 17.6891 12.8935 17.6778C12.6198 17.6665 12.2607 17.7591 11.8123 17.9573C11.2017 18.2429 10.6803 18.3692 10.2495 18.3333C9.81859 18.2975 9.43817 18.0989 9.11225 17.736C8.77909 17.3665 8.61264 16.9687 8.61412 16.5397C8.61561 16.1108 8.78238 15.7031 9.11725 15.318L8.59053 14.7371C8.51409 14.6502 8.51791 14.5176 8.606 14.4384L8.79519 14.2653C8.88205 14.1889 9.01466 14.1927 9.09393 14.2808L9.62225 14.8658C10.0465 14.5765 10.4832 14.4673 10.9329 14.5448C11.3366 14.6125 11.7237 14.8342 12.1014 15.2095C12.1742 15.2814 12.1684 15.4031 12.0909 15.4735L11.7438 15.7861C11.6715 15.8521 11.5596 15.8472 11.4883 15.7793C11.2366 15.5392 10.9752 15.399 10.7025 15.3545C10.3825 15.303 10.095 15.3931 9.84007 15.6249C9.57335 15.8683 9.4299 16.1216 9.41539 16.3872C9.40088 16.6528 9.50324 16.912 9.72617 17.1564C9.9346 17.3878 10.1739 17.5017 10.4456 17.5021C10.7173 17.5025 11.076 17.403 11.5204 17.2064C11.962 17.0086 12.343 16.8886 12.6554 16.8495C12.9677 16.8104 13.2518 16.8364 13.5025 16.9317C13.7532 17.027 13.9869 17.1922 14.2026 17.4301C14.5446 17.81 14.7102 18.2175 14.6913 18.6558C14.6724 19.094 14.4777 19.5197 14.103 19.9345L14.5432 20.4209C14.6197 20.5077 14.6159 20.6403 14.5278 20.7196L14.341 20.887C14.2542 20.9634 14.1216 20.9596 14.0423 20.8715L13.6021 20.3852C13.1489 20.7257 12.6894 20.872 12.2153 20.8275C11.7966 20.7868 11.4024 20.589 11.0368 20.2323C10.9611 20.1592 10.9697 20.0388 11.0445 19.9671L11.394 19.6488C11.465 19.5857 11.5738 19.5825 11.6394 19.6479C11.8867 19.8827 12.1501 20.0104 12.4214 20.0274C12.7383 20.0474 13.0445 19.9218 13.347 19.6502C13.6401 19.3846 13.8083 19.1051 13.8488 18.8106C13.895 18.5184 13.8044 18.2475 13.5843 18.0043Z" fill="white"/>
<path d="M14.2294 20.0766L13.6009 20.388L9.13054 15.3338L8.97925 15.1641L9.62225 14.8658L14.0974 19.932L14.2294 20.0766Z" fill="white"/>
<path opacity="0.5" d="M19.9575 15.5227C22.0778 16.4425 24.5423 15.4693 25.4621 13.349C26.3819 11.2287 25.4086 8.76422 23.2883 7.84444C21.168 6.92465 18.7036 7.89786 17.7838 10.0182C16.864 12.1385 17.8372 14.6029 19.9575 15.5227Z" fill="#2E7D32"/>
<path d="M14.4145 7.98927C16.2829 6.99394 18.0983 5.91184 19.611 4.51383C18.0995 5.90901 16.2894 6.98669 14.4238 7.98325C11.5073 9.53761 8.43193 10.9089 6.04819 13.0535C8.4291 10.9077 11.502 9.54203 14.4145 7.98927Z" fill="#2E7D32"/>
<path d="M32.5201 10.5267L24.2267 1.36374L32.4996 10.5043L32.5201 10.5267Z" fill="#2E7D32"/>
<path d="M22.3126 22.0793C26.8709 19.6495 31.7921 17.7296 33.8759 12.5313C33.9743 12.3356 33.9499 12.0901 33.7929 11.9179C33.7901 11.9167 33.7873 11.9155 33.7885 11.9126L32.5588 10.5535C30.5644 16.0255 25.5026 17.9986 20.8397 20.4838C17.2825 22.3778 13.9362 24.5748 12.4132 28.751C12.7565 29.1281 13.053 29.4581 13.2864 29.7171C13.552 30.0102 14.0351 29.9412 14.196 29.578C15.8332 25.9045 18.986 23.8518 22.3126 22.0793Z" fill="#2E7D32"/>
<path d="M15.0013 7.67326C14.7979 7.78639 14.6062 7.88784 14.4051 7.99532C13.0956 8.69269 11.6906 9.40906 10.4521 10.0667L20.1925 20.8307C20.404 20.7144 20.6197 20.5965 20.8369 20.4826C22.133 19.7929 23.4601 19.14 24.7433 18.4413L15.0013 7.67326Z" fill="#FFECB3"/>
<path d="M24.7502 18.441C23.4642 19.1384 22.1371 19.7913 20.8397 20.4838C20.6253 20.5989 20.4109 20.714 20.1981 20.8332L20.9965 22.8075C21.4298 22.5591 21.8704 22.3172 22.3154 22.0806C23.385 21.5108 24.4767 20.9673 25.5466 20.4043L24.7502 18.441Z" fill="#FFECB3"/>
<path opacity="0.5" d="M24.7502 18.441C23.4642 19.1384 22.1371 19.7913 20.8397 20.4838C20.6253 20.5989 20.4109 20.714 20.1981 20.8332L20.9965 22.8075C21.4298 22.5591 21.8704 22.3172 22.3154 22.0806C23.385 21.5108 24.4767 20.9673 25.5466 20.4043L24.7502 18.441Z" fill="#FFB74D"/>
<path opacity="0.2" d="M22.9979 0.907891L32.0868 10.9529L32.0897 10.9542C32.0913 10.9582 32.0969 10.9607 32.0985 10.9647L33.3032 12.2963L33.302 12.2991C31.573 16.6175 27.792 18.5554 23.7925 20.61C23.2101 20.9079 22.6091 21.2178 22.0207 21.5298C18.9258 23.178 15.4826 25.2658 13.6747 29.2244L12.8647 28.3292L12.5332 27.9639L12.2837 27.6878L3.38867 17.8611L3.39112 17.8555C5.13087 13.4813 8.96627 11.5032 13.027 9.40804C13.5769 9.12298 14.1471 8.82992 14.7048 8.53479C17.798 6.88254 21.2429 4.7988 22.9979 0.907891ZM23.1971 0.286086C22.9316 0.170892 22.6036 0.277 22.4758 0.563922C20.8849 4.17696 17.733 6.21995 14.4145 7.98927C9.84804 10.4223 4.89584 12.406 2.81877 17.6273C2.72046 17.823 2.74485 18.0686 2.90056 18.2435L2.90339 18.2447C4.11254 19.5816 9.95267 26.0355 11.8294 28.1083C12.1831 28.5001 12.3943 28.7327 12.4104 28.7498L12.412 28.7538C12.7553 29.131 13.0518 29.461 13.2852 29.72C13.3395 29.7805 13.4068 29.8265 13.4746 29.8559C13.7373 29.9698 14.0669 29.8678 14.1947 29.5809C15.8348 25.9086 18.9847 23.8547 22.3114 22.0822C26.8709 19.6495 31.7921 17.7296 33.8759 12.5313C33.9743 12.3356 33.9499 12.0901 33.7929 11.9179C33.7901 11.9167 33.7873 11.9155 33.7885 11.9127L32.5588 10.5535L32.5411 10.5324L23.3934 0.421596C23.3323 0.361485 23.2678 0.316723 23.1971 0.286086Z" fill="#424242"/>
<path d="M36.0447 26.5124C36.9375 25.1274 35.0163 23.5053 33.9748 23.1206C31.3409 22.1357 27.5158 22.6045 25.3756 19.6688C24.1297 17.9603 22.6445 20.8035 22.6445 20.8035C22.1833 21.7044 21.6992 23.3774 22.3285 24.3486C22.955 25.3185 24.6664 26.0005 25.3734 24.7498C25.2963 26.0959 26.1188 27.9061 27.685 28.0484C28.3818 28.1292 29.1207 27.5401 29.1688 26.903C29.6484 27.9872 31.4037 29.2487 32.3699 28.7314C33.4382 28.0872 32.4425 26.7691 32.1086 26.0066C33.0683 26.5102 35.1776 27.7374 36.0447 26.5124Z" fill="#CFD8DC"/>
<path opacity="0.2" d="M33.8552 23.7367C34.5389 24.0333 35.407 24.7791 35.6142 25.4698C35.6947 25.733 35.6694 25.9536 35.5363 26.1677C35.2613 26.5385 34.6141 26.5061 33.6112 26.0711C33.2327 25.9069 32.8733 25.714 32.5836 25.5615L32.3977 25.4641C32.3835 25.458 32.3706 25.449 32.3565 25.4429C32.1333 25.3461 31.8723 25.3906 31.6925 25.5576C31.5009 25.7363 31.443 26.0167 31.5471 26.2565C31.6147 26.41 31.7009 26.575 31.7916 26.7452C32.3345 27.7762 32.3196 28.0349 32.0706 28.1988C31.9094 28.2765 31.6204 28.2385 31.2955 28.0975C30.6571 27.8206 29.9717 27.1876 29.7359 26.6557C29.6714 26.5102 29.5551 26.3993 29.4195 26.3405C29.3121 26.2939 29.1913 26.2784 29.0711 26.3002C28.7923 26.347 28.5843 26.579 28.5596 26.8603C28.5497 26.9836 28.4557 27.1308 28.3145 27.2474C28.1469 27.3862 27.9343 27.4584 27.7609 27.4403C27.7552 27.4378 27.7512 27.4394 27.7443 27.4398C27.5891 27.4262 27.438 27.3875 27.2968 27.3262C26.4239 26.9476 25.9388 25.7134 25.9935 24.7905C26.0083 24.5318 25.8574 24.2918 25.6229 24.1901C25.6003 24.1803 25.5777 24.1705 25.5498 24.1651C25.2764 24.0834 24.9824 24.2042 24.8414 24.4519C24.5594 24.9472 24.0495 24.8535 23.6738 24.6905C23.3348 24.5435 23.0274 24.2926 22.8511 24.0181C22.4326 23.3734 22.718 22.027 23.1955 21.0963C23.5417 20.4375 24.2388 19.6121 24.5891 19.7641C24.6513 19.791 24.7516 19.8614 24.8827 20.0391C25.5639 20.9757 26.4484 21.6682 27.5868 22.1621C28.7422 22.6633 29.9733 22.8818 31.164 23.0929C32.1082 23.2608 33.0023 23.4204 33.768 23.7056C33.7931 23.7097 33.8213 23.722 33.8552 23.7367ZM34.1003 23.1717C34.058 23.1533 34.0184 23.1362 33.9776 23.1218C32.1785 22.4488 29.8232 22.4542 27.8287 21.589C26.905 21.1882 26.0564 20.5986 25.3796 19.6673C25.2008 19.4218 25.0175 19.2718 24.8338 19.1922C23.7377 18.7167 22.6473 20.8048 22.6473 20.8048C22.186 21.7056 21.702 23.3787 22.3313 24.3498C22.5751 24.7241 22.9808 25.0579 23.4271 25.2515C24.1333 25.5578 24.9434 25.5165 25.3762 24.751C25.3105 25.9007 25.9032 27.3896 27.0501 27.8872C27.245 27.9717 27.4591 28.0277 27.6878 28.0497C28.3846 28.1304 29.1235 27.5413 29.1716 26.9043C29.4702 27.5776 30.2623 28.3206 31.0476 28.6613C31.5279 28.8696 32.0055 28.9292 32.3699 28.7314C33.4382 28.0872 32.4425 26.7691 32.1086 26.0066C32.4281 26.1755 32.8746 26.4229 33.3633 26.6349C34.3351 27.0564 35.4657 27.3287 36.0446 26.5124C36.9045 25.1803 35.1597 23.6313 34.1003 23.1717Z" fill="#424242"/>
</g>
<defs>
<filter id="filter0_d_58_2" x="-22.9398" y="-24.8978" width="84.915" height="84.4993" filterUnits="userSpaceOnUse" color-interpolation-filters="sRGB">
<feFlood flood-opacity="0" result="BackgroundImageFix"/>
<feColorMatrix in="SourceAlpha" type="matrix" values="0 0 0 0 0 0 0 0 0 0 0 0 0 0 0 0 0 0 127 0" result="hardAlpha"/>
<feOffset dy="4"/>
<feGaussianBlur stdDeviation="12.85"/>
<feComposite in2="hardAlpha" operator="out"/>
<feColorMatrix type="matrix" values="0 0 0 0 0.18713 0 0 0 0 1 0 0 0 0 0.17054 0 0 0 1 0"/>
<feBlend mode="normal" in2="BackgroundImageFix" result="effect1_dropShadow_58_2"/>
<feBlend mode="normal" in="SourceGraphic" in2="effect1_dropShadow_58_2" result="shape"/>
</filter>
<linearGradient id="paint0_linear_58_2" x1="98.5234" y1="7.10548" x2="96.5347" y2="3.46106" gradientUnits="userSpaceOnUse">
<stop stop-color="#43A047"/>
<stop offset="0.9992" stop-color="#66BB6A"/>
</linearGradient>
<linearGradient id="paint1_linear_58_2" x1="97.9753" y1="21.3405" x2="102.086" y2="19.3358" gradientUnits="userSpaceOnUse">
<stop stop-color="#43A047"/>
<stop offset="0.9992" stop-color="#66BB6A"/>
</linearGradient>
<linearGradient id="paint2_linear_58_2" x1="61.6383" y1="27.9902" x2="62.7706" y2="21.6317" gradientUnits="userSpaceOnUse">
<stop stop-color="#43A047"/>
<stop offset="0.9992" stop-color="#66BB6A"/>
</linearGradient>
<linearGradient id="paint3_linear_58_2" x1="87.213" y1="21.9775" x2="82.5206" y2="18.2872" gradientUnits="userSpaceOnUse">
<stop stop-color="#43A047"/>
<stop offset="0.9992" stop-color="#66BB6A"/>
</linearGradient>
<linearGradient id="paint4_linear_58_2" x1="71.7814" y1="10.683" x2="74.9996" y2="7.90233" gradientUnits="userSpaceOnUse">
<stop stop-color="#43A047"/>
<stop offset="0.9992" stop-color="#66BB6A"/>
</linearGradient>
<linearGradient id="paint5_linear_58_2" x1="47.7802" y1="12.823" x2="50.0622" y2="5.88978" gradientUnits="userSpaceOnUse">
<stop stop-color="#43A047"/>
<stop offset="0.9992" stop-color="#66BB6A"/>
</linearGradient>
<linearGradient id="paint6_linear_58_2" x1="33.6166" y1="25.0685" x2="29.3685" y2="19.4414" gradientUnits="userSpaceOnUse">
<stop stop-color="#43A047"/>
<stop offset="0.9992" stop-color="#66BB6A"/>
</linearGradient>
<linearGradient id="paint7_linear_58_2" x1="19.6454" y1="10.2654" x2="22.4697" y2="6.81745" gradientUnits="userSpaceOnUse">
<stop stop-color="#43A047"/>
<stop offset="0.9992" stop-color="#66BB6A"/>
</linearGradient>
<linearGradient id="paint8_linear_58_2" x1="24.5678" y1="1.7424" x2="24.5678" y2="1.7424" gradientUnits="userSpaceOnUse">
<stop stop-color="#43A047"/>
<stop offset="0.9992" stop-color="#66BB6A"/>
</linearGradient>
<linearGradient id="paint9_linear_58_2" x1="7.54548" y1="23.3733" x2="27.5777" y2="5.24467" gradientUnits="userSpaceOnUse">
<stop stop-color="#43A047"/>
<stop offset="0.9992" stop-color="#66BB6A"/>
</linearGradient>
</defs>
</svg>
